<?xml version="1.0" standalone="no"?><!DOCTYPE svg PUBLIC "-//W3C//DTD SVG 1.1//EN" "http://www.w3.org/Graphics/SVG/1.1/DTD/svg11.dtd"><svg t="1547082449091" class="icon" style="" viewBox="0 0 1024 1024" version="1.1" xmlns="http://www.w3.org/2000/svg" p-id="2886" xmlns:xlink="http://www.w3.org/1999/xlink" width="200" height="200"><defs><style type="text/css"></style></defs><path d="M171 674.4h36.1V349.9H171v324.5z m90-324.5h-18.1V602H261V349.9z m35.9 252h18v-252h-18v252z m108.1-252h-54V602h54V349.9z m53.6 252h18v-252h-18v252z m71.8 0h36.1v-252h-36.1v252z m71.9 0h18v-252h-18v252z m161.8-252H728V602h36.1V349.9z m53.8 324.5H854V349.9h-36.1v324.5z m-143.7-72.5h18v-252h-18v252z m234-358.7h-791c-29.7 0-53.9 24.2-53.9 53.9v430c0 29.7 24.2 53.9 53.9 53.9h790.9c29.7 0 53.9-24.2 53.9-53.9v-430c0.1-29.7-24.1-53.9-53.8-53.9z m17.9 484c0 9.9-8.1 18-18 18H117.2c-9.9 0-18-8.1-18-18v-430c0-9.9 8.1-18 18-18h790.9c9.9 0 18 8.1 18 18v430z m-611-53.4H351v-36.5h-35.9v36.5z m413.3 0h35.9v-36.5h-35.9v36.5z m-341.5 0h35.9v-36.5h-35.9v36.5z m251.6 0h35.9v-36.5h-35.9v36.5z m-161.7 0h35.9v-36.5h-35.9v36.5z m89.8 0h35.9v-36.5h-35.9v36.5z m-323.4 0h35.9v-36.5h-35.9v36.5z" p-id="2887" fill="#1296db"></path></svg>