<?xml version="1.0" standalone="no"?><!DOCTYPE svg PUBLIC "-//W3C//DTD SVG 1.1//EN" "http://www.w3.org/Graphics/SVG/1.1/DTD/svg11.dtd"><svg t="1547083576443" class="icon" style="" viewBox="0 0 1024 1024" version="1.1" xmlns="http://www.w3.org/2000/svg" p-id="8072" xmlns:xlink="http://www.w3.org/1999/xlink" width="200" height="200"><defs><style type="text/css"></style></defs><path d="M858 64H326a70 70 0 0 0-70 70v90h-90a70 70 0 0 0-70 70v596a70 70 0 0 0 70 70h532a70 70 0 0 0 70-70v-90h90a70 70 0 0 0 70-70V134a70 70 0 0 0-70-70zM688 720v120a40 40 0 0 1-40 40H216a40 40 0 0 1-40-40V344a40 40 0 0 1 40-40h432a40 40 0 0 1 40 40z m160-40a40 40 0 0 1-40 40h-40V294a70 70 0 0 0-70-70H336v-40a40 40 0 0 1 40-40h432a40 40 0 0 1 40 40z" fill="#1296db" p-id="8073"></path><path d="M584 384H280a40 40 0 0 0 0 80h304a40 40 0 0 0 0-80zM584 544.14H280a40 40 0 0 0 0 80h304a40 40 0 0 0 0-80zM584 704.29H280a40 40 0 0 0 0 80h304a40 40 0 0 0 0-80z" fill="#1296db" p-id="8074"></path></svg>