<?xml version="1.0" standalone="no"?><!DOCTYPE svg PUBLIC "-//W3C//DTD SVG 1.1//EN" "http://www.w3.org/Graphics/SVG/1.1/DTD/svg11.dtd"><svg t="1547083956206" class="icon" style="" viewBox="0 0 1024 1024" version="1.1" xmlns="http://www.w3.org/2000/svg" p-id="21443" xmlns:xlink="http://www.w3.org/1999/xlink" width="200" height="200"><defs><style type="text/css"></style></defs><path d="M1000.177479 646.278994l-23.146116-136.962097c-1.431603-46.318839-39.940584-83.620322-87.076021-83.620323h-11.486589l-42.303393-83.396218c-9.888188-19.522597-29.717776-31.627261-51.740305-31.627262H627.042923v-28.792709c0-31.684566-25.812847-57.498437-57.52709-57.498437H166.846672c-31.714242 0-57.52709 25.813871-57.527089 57.498437v57.553696h57.527089v-57.553696h402.669161v373.920454h-147.887916c-12.851677-49.464476-57.497414-86.26147-110.965056-86.26147s-98.117472 36.796994-110.968125 86.26147h-32.848064v-86.26147H109.319583v143.818236h90.374129c12.851677 49.46243 57.500484 86.26147 110.968126 86.26147 53.466619 0 98.113379-36.799041 110.965056-86.26147H688.64174c12.863957 49.46243 57.526066 86.26147 110.979382 86.26147 53.454339 0 98.114402-36.799041 110.978358-86.26147h32.415206c17.161834 0 33.341296-7.500819 44.380701-20.562274 10.928888-12.893632 15.565479-29.860015 12.782092-46.516337z m-689.514618 95.838574c-31.712196 0-57.52709-25.840476-57.527089-57.552672s25.814894-57.525043 57.527089-57.525043c31.710149 0 57.52709 25.812847 57.52709 57.525043s-25.815917 57.552672-57.52709 57.552672zM784.874285 368.33833l29.100724 57.358244h-71.879954v-57.413502l42.77923 0.055258z m14.748883 373.779238c-31.714242 0-57.52709-25.840476-57.527089-57.552672s25.812847-57.525043 57.527089-57.525043c31.712196 0 57.52709 25.812847 57.52709 57.525043s-25.814894 57.552672-57.52709 57.552672z m110.978359-86.316729c-12.863957-49.464476-57.52402-86.26147-110.978359-86.26147-53.453316 0-98.115426 36.796994-110.979382 86.26147h-61.59984v-258.89595l57.52709 0.028652v28.763033c0 31.712196 25.814894 57.554719 57.526066 57.554719h147.859264c16.320678 0 29.578607 12.863957 29.578606 28.734381l23.481761 143.815165h-32.415206z" p-id="21444" fill="#1296db"></path><path d="M23.031507 368.170508h230.104265v57.526066H23.031507zM51.79454 483.251293h230.103242v57.497414H51.79454z" p-id="21445" fill="#1296db"></path></svg>