<?xml version="1.0" standalone="no"?><!DOCTYPE svg PUBLIC "-//W3C//DTD SVG 1.1//EN" "http://www.w3.org/Graphics/SVG/1.1/DTD/svg11.dtd"><svg t="1547084403763" class="icon" style="" viewBox="0 0 1030 1024" version="1.1" xmlns="http://www.w3.org/2000/svg" p-id="27695" xmlns:xlink="http://www.w3.org/1999/xlink" width="201.171875" height="200"><defs><style type="text/css"></style></defs><path d="M952.832 858.112h-716.8c-14.336 0-25.6-11.264-25.6-25.6V203.264c0-14.336 11.264-25.6 25.6-25.6h716.8c14.336 0 25.6 11.264 25.6 25.6v629.248c0 14.336-11.264 25.6-25.6 25.6z m-691.2-51.2h665.6V228.864h-665.6v578.048z" p-id="27696" fill="#1296db"></path><path d="M952.832 998.912H104.448c-14.336 0-25.6-11.264-25.6-25.6V203.264c0-14.336 11.264-25.6 25.6-25.6s25.6 11.264 25.6 25.6v744.448h822.784c14.336 0 25.6 11.264 25.6 25.6s-11.264 25.6-25.6 25.6zM952.832 228.864h-716.8c-9.728 0-18.432-5.12-22.528-13.824s-3.584-18.432 1.536-26.624L324.608 31.232c4.608-6.656 12.8-10.752 20.992-10.752h490.496c8.192 0 15.872 3.584 20.48 10.24l116.736 157.184c5.632 7.68 6.656 17.92 2.56 26.624s-13.312 14.336-23.04 14.336z m-667.648-51.2h616.96L823.296 71.68H358.912L285.184 177.664zM727.552 410.112H432.128c-14.336 0-25.6-11.264-25.6-25.6s11.264-25.6 25.6-25.6h295.424c14.336 0 25.6 11.264 25.6 25.6s-11.264 25.6-25.6 25.6z" p-id="27697" fill="#1296db"></path></svg>