<?xml version="1.0" standalone="no"?><!DOCTYPE svg PUBLIC "-//W3C//DTD SVG 1.1//EN" "http://www.w3.org/Graphics/SVG/1.1/DTD/svg11.dtd"><svg t="1547085018338" class="icon" style="" viewBox="0 0 1024 1024" version="1.1" xmlns="http://www.w3.org/2000/svg" p-id="36216" xmlns:xlink="http://www.w3.org/1999/xlink" width="200" height="200"><defs><style type="text/css"></style></defs><path d="M511.936008 0a512 512 0 1 0 0.127984 1024A512 512 0 0 0 511.936008 0zM170.410699 326.487189l299.162604-143.150106a4.095488 4.095488 0 0 1 3.007624 0l298.586677 142.126234c2.55968 1.27984 2.687664 4.927384 0 6.207224L475.012623 474.756655a4.095488 4.095488 0 0 1-2.943632 0L170.410699 332.886389c-2.751656-1.27984-2.751656-5.11936 0-6.3992z m-1.727784 167.147107l55.801025-26.748657 57.976752-29.692288 186.280715 86.645169c2.687664 1.27984 5.695288 1.27984 8.382952 0l19.197601-8.95888a207.334083 207.334083 0 0 0-23.485065 127.728034c-0.255968 0-0.511936-0.127984-0.895888-0.255968L168.810899 499.777528a3.391576 3.391576 0 0 1-0.127984-6.207224z m306.07374 318.808149c-0.95988 0.383952-1.91976 0.511936-2.943632 0l-303.130108-142.382203c-2.751656-1.27984-2.751656-4.927384 0-6.271216l55.801025-26.87664 58.488688-29.116361 189.736283 83.189602 10.430697-4.607424a209.829771 209.829771 0 0 0 64.631921 90.612673l-72.950882 35.451569z m213.413324-3.903512a193.575803 193.575803 0 1 1 0-387.151606 193.575803 193.575803 0 1 1 0 387.151606z" fill="#1296db" p-id="36217"></path><path d="M685.738283 530.045744c86.069241 0 145.261842 58.552681 145.261842 87.413074 0 27.964504-59.960505 87.669041-145.261842 87.669041-83.125609 0-145.261842-58.872641-145.261843-87.669041 0-28.7964 62.264217-87.413073 145.261843-87.413074z m0.127984 159.148107c38.715161 0 70.007249-31.996 70.007249-71.607049 0-39.547057-31.35608-71.671041-70.007249-71.671041-38.715161 0-70.071241 32.123985-70.071241 71.671041 0 39.547057 31.35608 71.671041 70.071241 71.671041z m-44.794401-71.671041c0-16.31796 8.510936-31.35608 22.3972-39.483065a43.898513 43.898513 0 0 1 44.602425 0 45.690289 45.690289 0 0 1 22.269216 39.419073 45.690289 45.690289 0 0 1-22.269216 39.419072 43.898513 43.898513 0 0 1-44.666417 0 45.690289 45.690289 0 0 1-22.333208-39.419072z" fill="#1296db" p-id="36218"></path></svg>