<?xml version="1.0" standalone="no"?><!DOCTYPE svg PUBLIC "-//W3C//DTD SVG 1.1//EN" "http://www.w3.org/Graphics/SVG/1.1/DTD/svg11.dtd"><svg t="1547082710695" class="icon" style="" viewBox="0 0 1024 1024" version="1.1" xmlns="http://www.w3.org/2000/svg" p-id="5192" xmlns:xlink="http://www.w3.org/1999/xlink" width="200" height="200"><defs><style type="text/css"></style></defs><path d="M781.815285 476.190635c-13.467164-22.490665-51.207577-87.24834-92.706673-158.45035C628.987089 214.583839 560.842402 97.658182 546.881725 75.688675c-5.307822-8.392788-14.427568-12.808805-24.588606-13.055562a28.171181 28.171181 0 0 0-23.738781 14.564769c-7.035116 12.808805-34.943158 59.381253-67.267218 113.304174-61.69933 102.963956-146.190347 243.970371-170.999088 292.380693-23.752092 46.325692-48.039676 102.277953-48.039676 165.856112 0 171.451645 139.483898 310.949878 310.922233 310.949878s310.922233-139.498232 310.922233-310.949878c0-57.406179-17.115267-113.852976-52.277537-172.548226zM558.420913 901.066185l107.62161-235.623659a28.102581 28.102581 0 0 0-1.919785-26.851392 28.090294 28.090294 0 0 0-23.629225-12.890716H471.770522l90.950709-202.088343c6.363447-14.125522 0.05529-30.773897-14.084566-37.137344-14.125522-6.335802-30.773897-0.081911-37.150655 14.097877L402.707409 642.265858a28.096437 28.096437 0 0 0 2.02934 26.769482 28.071864 28.071864 0 0 0 23.588271 12.83645h168.4619L500.954325 891.694562a27.961284 27.961284 0 0 0-2.522853 10.616667c-128.905115-12.482186-230.010719-121.434847-230.010719-253.572368 0-51.509623 20.118323-97.835314 41.855408-140.238501 23.957893-46.764938 107.901131-186.838594 169.202169-289.116547 16.950422-28.30531 32.118259-53.621898 44.007616-73.588686 28.223399 47.751964 74.658646 127.429696 117.089478 200.250468 41.649607 71.44979 79.540531 136.453197 93.04865 158.999152 29.814517 49.75366 44.296351 96.737709 44.296351 143.694114 0 128.524229-95.652391 235.106596-219.499512 252.327324z" fill="#1296db" p-id="5193"></path></svg>