<?xml version="1.0" standalone="no"?><!DOCTYPE svg PUBLIC "-//W3C//DTD SVG 1.1//EN" "http://www.w3.org/Graphics/SVG/1.1/DTD/svg11.dtd"><svg t="1547082791265" class="icon" style="" viewBox="0 0 1024 1024" version="1.1" xmlns="http://www.w3.org/2000/svg" p-id="6101" xmlns:xlink="http://www.w3.org/1999/xlink" width="200" height="200"><defs><style type="text/css"></style></defs><path d="M790.955166 377.263158a129.746589 129.746589 0 1 1 129.746588-129.746589 129.746589 129.746589 0 0 1-129.746588 129.746589z m-0.998051 70.861598a129.746589 129.746589 0 0 1 129.746589 129.746589v329.216998a0.136733 0.136733 0 0 1-0.139727 0.139727H660.350253a0.136733 0.136733 0 0 1-0.139727-0.139727v-201.007407l-119.416764 69.174892a32.362791 32.362791 0 0 1-39.413021-5.429395L395.727096 708.825575v198.262768a0.136733 0.136733 0 0 1-0.139728 0.139727H136.373645a0.136733 0.136733 0 0 1-0.139727-0.139727V577.871345a129.746589 129.746589 0 1 1 259.493178 0v56.040546l129.906276 75.003509L660.210526 630.957661V577.871345a129.746589 129.746589 0 0 1 129.746589-129.746589z m-522.978557-70.861598a129.746589 129.746589 0 1 1 129.746588-129.746589 129.746589 129.746589 0 0 1-129.746588 129.746589z" fill="#1296db" p-id="6102"></path></svg>