<?xml version="1.0" standalone="no"?><!DOCTYPE svg PUBLIC "-//W3C//DTD SVG 1.1//EN" "http://www.w3.org/Graphics/SVG/1.1/DTD/svg11.dtd"><svg t="1547022415859" class="icon" style="" viewBox="0 0 1024 1024" version="1.1" xmlns="http://www.w3.org/2000/svg" p-id="508" xmlns:xlink="http://www.w3.org/1999/xlink" width="200" height="200"><defs><style type="text/css"></style></defs><path d="M751.855 562.229c-107.579 0-194.778 87.223-194.778 194.797 0 107.584 87.199 194.782 194.778 194.782 107.574 0 194.797-87.198 194.797-194.782 0-107.575-87.213-194.797-194.797-194.797z m137.083 208.085c0 7.957-6.463 14.426-14.431 14.426H773.273v86.666a14.404 14.404 0 0 1-14.431 14.431h-14.427c-7.967 0-14.416-6.436-14.416-14.431V784.85H628.984c-7.948 0-14.431-6.464-14.431-14.431v-14.44c0-7.958 6.463-14.431 14.431-14.431h101.225v-86.671c0-7.986 6.454-14.431 14.44-14.431h14.422c7.967 0 14.421 6.444 14.421 14.431v86.565h101.021c7.948 0 14.431 6.464 14.431 14.422v14.45h-0.006zM268.89 234.46c22.832 0 41.336-17.896 41.336-39.96v-79.903c0-22.075-18.505-39.96-41.336-39.96-22.827 0-41.322 17.886-41.322 39.96V194.5c0 22.07 18.495 39.96 41.322 39.96zM682.205 234.46c22.826 0 41.331-17.896 41.331-39.96v-79.903c0-22.075-18.515-39.96-41.331-39.96-22.827 0-41.337 17.886-41.337 39.96V194.5c0 22.07 18.51 39.96 41.337 39.96zM475.547 234.46c22.827 0 41.332-17.896 41.332-39.96v-79.903c0-22.075-18.505-39.96-41.332-39.96s-41.322 17.886-41.322 39.96V194.5c-0.009 22.07 18.496 39.96 41.322 39.96z" fill="#1296db" p-id="509"></path><path d="M528.691 793.807H220.676c-19.028 0-34.439-14.916-34.439-33.297 0-18.382 15.411-33.288 34.439-33.288h307.269c4.598-34.06 16.739-65.71 34.707-93.229H227.568c-22.836 0-41.332-17.886-41.332-39.951 0-22.074 18.495-39.951 41.332-39.951h425.309c30.128-14.793 63.986-23.122 99.816-23.122 45.087 0 87.07 13.203 122.386 35.887V194.5c0-22.065-18.495-39.952-41.327-39.952h-68.889V194.5c0 44.14-37.005 79.912-82.658 79.912s-82.663-35.772-82.663-79.912v-39.952H558.21V194.5c0 44.14-37.005 79.912-82.663 79.912-45.644 0-82.658-35.772-82.658-79.912v-39.952h-41.336V194.5c0 44.14-37 79.912-82.653 79.912-45.653 0-82.663-35.772-82.663-79.912v-39.952h-68.894c-22.831 0-41.327 17.886-41.327 39.952v692.531c0 22.061 18.5 39.946 41.327 39.946h484.199c-37.991-33.977-64.464-80.559-72.851-133.17zM227.568 380.944h495.968c22.827 0 41.327 17.896 41.327 39.956 0 22.065-18.5 39.951-41.327 39.951H227.568c-22.836 0-41.332-17.886-41.332-39.951 0-22.061 18.495-39.956 41.332-39.956z" fill="#1296db" p-id="510"></path></svg>