<?xml version="1.0" standalone="no"?><!DOCTYPE svg PUBLIC "-//W3C//DTD SVG 1.1//EN" "http://www.w3.org/Graphics/SVG/1.1/DTD/svg11.dtd"><svg t="1547084464206" class="icon" style="" viewBox="0 0 1024 1024" version="1.1" xmlns="http://www.w3.org/2000/svg" p-id="29187" xmlns:xlink="http://www.w3.org/1999/xlink" width="200" height="200"><defs><style type="text/css"></style></defs><path d="M189.5 511.4c0 36.3 29.5 65.8 65.8 65.8 36.4 0 65.9-29.4 65.9-65.8s-29.5-65.8-65.9-65.8c-36.4 0-65.8 29.5-65.8 65.8z m0 254.8c0 36.3 29.5 65.8 65.8 65.8 36.4 0 65.9-29.4 65.9-65.8 0-36.3-29.5-65.8-65.9-65.8-36.4 0.2-65.8 29.5-65.8 65.8z m42.1-450.6l-49.5-45.8c-10.2-9.4-10.8-25.4-1.3-35.4l2.5-2.7c9.4-10.2 25.4-10.8 35.5-1.3l49.5 45.8c10.2 9.4 10.8 25.4 1.3 35.4l-2.5 2.7c-9.5 9.9-25.3 10.5-35.5 1.3z m0 0M803.5 288.1H447.8c-17.6 0-32-14.4-32-31.9 0-17.6 14.4-31.9 32-31.9h355.7c17.6 0 32 14.4 32 31.9s-14.4 31.9-32 31.9z m0 256.2H447.8c-17.6 0-32-14.4-32-31.9 0-17.6 14.4-31.9 32-31.9h355.7c17.6 0 32 14.4 32 31.9 0 17.6-14.4 31.9-32 31.9z m0 254.9H447.8c-17.6 0-32-14.4-32-31.9 0-17.6 14.4-31.9 32-31.9h355.7c17.6 0 32 14.4 32 31.9s-14.4 31.9-32 31.9z m0 0" fill="#1296db" p-id="29188"></path><path d="M226.3 278.7l77.3-93.3c8.8-10.7 24.8-12.2 35.4-3.4l2.8 2.3c10.7 8.8 12.2 24.8 3.4 35.3l-77.3 93.3c-8.8 10.7-24.8 12.2-35.4 3.4l-2.8-2.3c-10.7-8.7-12.3-24.6-3.4-35.3z m0 0" fill="#1296db" p-id="29189"></path><path d="M838 64c14.8 0 28.9 5.9 39.5 16.5C888.1 91.1 894 105.2 894 120v784c0 14.8-5.9 28.9-16.5 39.5-10.6 10.6-24.7 16.5-39.5 16.5H186c-14.8 0-28.9-5.9-39.5-16.5-10.6-10.6-16.5-24.7-16.5-39.5V120c0-14.8 5.9-28.9 16.5-39.5C157.1 69.9 171.2 64 186 64h652m0-64H186C120 0 66 54 66 120v784c0 66 54 120 120 120h652c66 0 120-54 120-120V120C958 54 904 0 838 0z" fill="#1296db" p-id="29190"></path></svg>