<?xml version="1.0" standalone="no"?><!DOCTYPE svg PUBLIC "-//W3C//DTD SVG 1.1//EN" "http://www.w3.org/Graphics/SVG/1.1/DTD/svg11.dtd"><svg t="1547083698724" class="icon" style="" viewBox="0 0 1408 1024" version="1.1" xmlns="http://www.w3.org/2000/svg" p-id="14811" xmlns:xlink="http://www.w3.org/1999/xlink" width="275" height="200"><defs><style type="text/css"></style></defs><path d="M64 192l0 759.04C64 1024 135.104 1024 135.104 1024l1137.792 0c0 0 71.104 0 71.104-72.96L1344 192l-64 0 0 768L128 960 128 192 64 192z" p-id="14812" fill="#1296db"></path><path d="M896.192 384C931.456 384 960 355.648 960 320.064L960 255.936C960 220.608 931.008 192 896.192 192L511.808 192C476.544 192 448 220.352 448 255.936l0 64.128C448 355.392 476.992 384 511.808 384L896.192 384zM512 256l384 0 0 64L512 320 512 256z" p-id="14813" fill="#1296db"></path><path d="M1408 64c0-64-64-64-64-64L63.68 0C63.68 0 0 0 0 64c0 64 63.68 64 63.68 64L1344 128C1344 128 1408 128 1408 64z" p-id="14814" fill="#1296db"></path></svg>