<?xml version="1.0" standalone="no"?><!DOCTYPE svg PUBLIC "-//W3C//DTD SVG 1.1//EN" "http://www.w3.org/Graphics/SVG/1.1/DTD/svg11.dtd"><svg t="1547083746011" class="icon" style="" viewBox="0 0 1024 1024" version="1.1" xmlns="http://www.w3.org/2000/svg" p-id="15010" xmlns:xlink="http://www.w3.org/1999/xlink" width="200" height="200"><defs><style type="text/css"></style></defs><path d="M511.951 68.815c-245.047 0-443.698 198.65-443.698 443.698S266.904 956.21 511.951 956.21s443.698-198.65 443.698-443.698S756.999 68.815 511.951 68.815zM804.48 805.041c-38.003 38.003-82.249 67.836-131.508 88.671-50.983 21.564-105.159 32.498-161.021 32.498s-110.037-10.934-161.021-32.498c-49.259-20.835-93.505-50.668-131.508-88.671-38.003-38.003-67.836-82.249-88.671-131.508-21.564-50.983-32.498-105.159-32.498-161.021s10.934-110.037 32.498-161.021c20.835-49.259 50.668-93.505 88.671-131.508s82.249-67.836 131.508-88.671c50.983-21.564 105.159-32.498 161.021-32.498s110.037 10.934 161.021 32.498c49.259 20.835 93.505 50.668 131.508 88.671s67.836 82.249 88.671 131.508c21.564 50.983 32.498 105.159 32.498 161.021s-10.934 110.037-32.498 161.021c-20.835 49.26-50.668 93.505-88.671 131.508z" fill="#1296db" p-id="15011"></path><path d="M305.951 335.768c-26.188 0-47.492 21.305-47.492 47.493s21.305 47.492 47.492 47.492 47.492-21.305 47.492-47.492-21.304-47.493-47.492-47.493zM305.951 465.021c-26.188 0-47.492 21.305-47.492 47.492s21.305 47.492 47.492 47.492 47.492-21.305 47.492-47.492-21.304-47.492-47.492-47.492zM305.951 594.272c-26.188 0-47.492 21.305-47.492 47.492s21.305 47.492 47.492 47.492 47.492-21.305 47.492-47.492-21.304-47.492-47.492-47.492zM736.275 368.261H427.063c-8.284 0-15 6.716-15 15s6.716 15 15 15h309.213c8.284 0 15-6.716 15-15s-6.716-15-15.001-15zM736.275 497.513H427.063c-8.284 0-15 6.716-15 15s6.716 15 15 15h309.213c8.284 0 15-6.716 15-15s-6.716-15-15.001-15zM736.275 626.765H427.063c-8.284 0-15 6.716-15 15s6.716 15 15 15h309.213c8.284 0 15-6.716 15-15s-6.716-15-15.001-15z" fill="#1296db" p-id="15012"></path></svg>